<svg width="32" height="32" viewBox="0 0 32 32" fill="none" xmlns="http://www.w3.org/2000/svg">
<g clip-path="url(#clip0)">
<path d="M32.002 16.099C32.002 7.20702 24.838 -0.000976562 16.002 -0.000976562C7.16199 0.00102344 -0.00201416 7.20702 -0.00201416 16.101C-0.00201416 24.135 5.84999 30.795 13.498 32.003V20.753H9.43799V16.101H13.502V12.551C13.502 8.51702 15.892 6.28902 19.546 6.28902C21.298 6.28902 23.128 6.60302 23.128 6.60302V10.563H21.11C19.124 10.563 18.504 11.805 18.504 13.079V16.099H22.94L22.232 20.751H18.502V32.001C26.15 30.793 32.002 24.133 32.002 16.099Z" fill="#0A1931"/>
</g>
<defs>
<clipPath id="clip0">
<rect width="32" height="32" fill="white"/>
</clipPath>
</defs>
</svg>
