<svg width="546" height="484" viewBox="0 0 546 484" fill="none" xmlns="http://www.w3.org/2000/svg">
<g clip-path="url(#clip0)">
<path opacity="0.1" d="M301.394 187.263C322.733 180.353 345.295 174.561 368.354 175.158C402.254 176.039 434.848 191.843 450.924 215.202C464.512 234.996 466.325 258.26 472.257 280.271C479.565 307.388 493.437 333.122 508.242 358.289C516.194 371.807 524.584 385.608 525.966 400.461C527.863 421.083 515.373 441.698 495.682 455.517C475.991 469.336 449.789 476.7 423.463 478.42C409.456 479.331 394.816 478.627 382.344 473.58C369.152 468.26 359.504 458.526 346.258 453.265C333.982 448.395 319.673 447.769 305.901 448.484C288.066 449.386 270.403 452.414 253.285 457.503C234.09 463.248 216.254 471.517 197.101 477.345C177.947 483.173 156.537 486.471 136.911 481.784C118.484 477.386 103.867 466.546 90.6869 455.565C69.4464 437.913 49.6963 418.539 31.6371 397.642C19.7326 383.817 8.64336 369.218 3.32621 353.064C-6.82953 322.176 6.77641 287.204 37.22 265.932C62.441 248.301 96.3703 240.516 129.597 235.788C159.898 231.432 194.956 231.001 222.806 219.906C249.368 209.297 273.532 196.282 301.394 187.263Z" fill="#F7B308"/>
<path opacity="0.1" d="M29.3802 292.523C21.8397 292.523 15.7269 291.684 15.7269 290.649C15.7269 289.615 21.8397 288.776 29.3802 288.776C36.9207 288.776 43.0334 289.615 43.0334 290.649C43.0334 291.684 36.9207 292.523 29.3802 292.523Z" fill="#F7B308"/>
<path opacity="0.1" d="M81.6832 297.831C74.1427 297.831 68.0299 296.992 68.0299 295.957C68.0299 294.922 74.1427 294.083 81.6832 294.083C89.2237 294.083 95.3364 294.922 95.3364 295.957C95.3364 296.992 89.2237 297.831 81.6832 297.831Z" fill="#F7B308"/>
<path opacity="0.1" d="M143.291 290.649C135.751 290.649 129.638 289.811 129.638 288.776C129.638 287.741 135.751 286.902 143.291 286.902C150.832 286.902 156.944 287.741 156.944 288.776C156.944 289.811 150.832 290.649 143.291 290.649Z" fill="#F7B308"/>
<path opacity="0.1" d="M60.7513 312.4C55.3905 312.4 51.0446 311.802 51.0446 311.064C51.0446 310.327 55.3905 309.729 60.7513 309.729C66.1122 309.729 70.4581 310.327 70.4581 311.064C70.4581 311.802 66.1122 312.4 60.7513 312.4Z" fill="#F7B308"/>
<path opacity="0.1" d="M115.033 311.064C109.673 311.064 105.327 310.466 105.327 309.729C105.327 308.991 109.673 308.393 115.033 308.393C120.394 308.393 124.74 308.991 124.74 309.729C124.74 310.466 120.394 311.064 115.033 311.064Z" fill="#F7B308"/>
<path d="M81.9786 295.531C81.9786 295.531 62.8251 232.726 84.9739 207.571C101.516 188.752 120.351 191.022 128.769 193.333C130.949 193.913 132.976 194.96 134.71 196.403C136.444 197.845 137.844 199.647 138.813 201.684C141.767 208.038 141.223 218.352 120.439 230.392C85.6356 250.552 83.4674 278.208 83.4674 278.208L81.9786 295.531Z" fill="#F7B308"/>
<path d="M125.774 202.24C125.774 202.24 69.3178 219.901 81.9785 295.531" stroke="#565987" stroke-miterlimit="10"/>
<path d="M92.8078 208.57C92.8078 208.57 100.583 213.813 98.125 221.686" stroke="#565987" stroke-miterlimit="10"/>
<path d="M120.108 213.234C120.108 213.234 115.382 208.399 109.575 211.064" stroke="#565987" stroke-miterlimit="10"/>
<path d="M97.7941 237.555C97.7941 237.555 89.4521 233.323 87.2957 238.625" stroke="#565987" stroke-miterlimit="10"/>
<path d="M77.1458 246.386C77.1458 246.386 83.4141 245.889 83.5264 248.886" stroke="#565987" stroke-miterlimit="10"/>
<path d="M81.2047 296.034C81.2047 296.034 103.655 250.387 109.793 251.386C112.747 251.859 114.071 254.743 114.679 257.633C115.435 261.374 115.008 265.258 113.456 268.745C110.272 276.05 101.723 289.922 81.2047 296.034Z" fill="#F7B308"/>
<path d="M109.628 260.051C109.628 260.051 86.0846 294.202 81.5355 295.703" stroke="#565987" stroke-miterlimit="10"/>
<path d="M111.79 265.382H106.296" stroke="#565987" stroke-miterlimit="10"/>
<path d="M105.209 277.877L96.5948 278.243" stroke="#565987" stroke-miterlimit="10"/>
<path d="M99.9683 267.882L100.902 272.368" stroke="#565987" stroke-miterlimit="10"/>
<path d="M90.811 281.541L90.9763 285.62" stroke="#565987" stroke-miterlimit="10"/>
<path d="M81.8663 296.034C81.8663 296.034 59.4161 250.387 53.2778 251.386C50.3238 251.859 49.0004 254.743 48.3919 257.633C47.6358 261.374 48.0632 265.258 49.6148 268.745C52.7992 276.05 61.348 289.922 81.8663 296.034Z" fill="#F7B308"/>
<path d="M53.4432 260.051C53.4432 260.051 76.9863 294.202 81.5355 295.703" stroke="#565987" stroke-miterlimit="10"/>
<path d="M51.2809 265.382H56.7753" stroke="#565987" stroke-miterlimit="10"/>
<path d="M57.8624 277.877L66.4761 278.243" stroke="#565987" stroke-miterlimit="10"/>
<path d="M63.1027 267.882L62.1692 272.368" stroke="#565987" stroke-miterlimit="10"/>
<path d="M72.2659 281.541L72.0946 285.62" stroke="#565987" stroke-miterlimit="10"/>
<path d="M120.38 306.696C120.989 306.197 121.434 305.526 121.656 304.77C121.755 304.389 121.72 303.986 121.558 303.628C121.396 303.27 121.115 302.978 120.764 302.801C119.943 302.488 119.069 303.056 118.401 303.635C117.733 304.214 116.977 304.858 116.109 304.74C116.555 304.334 116.888 303.82 117.077 303.247C117.265 302.675 117.302 302.063 117.184 301.472C117.148 301.226 117.046 300.996 116.889 300.804C116.434 300.319 115.607 300.532 115.063 300.91C113.332 302.134 112.848 304.486 112.836 306.602C112.751 305.816 112.751 305.023 112.836 304.238C112.87 303.846 112.807 303.453 112.653 303.091C112.5 302.729 112.26 302.411 111.955 302.163C111.545 301.938 111.082 301.828 110.614 301.844C110.228 301.789 109.834 301.816 109.458 301.923C109.083 302.03 108.734 302.214 108.434 302.465C107.779 303.174 107.95 304.362 108.523 305.142C109.168 305.856 109.929 306.456 110.774 306.915C111.421 307.298 111.973 307.824 112.387 308.452C112.433 308.539 112.473 308.63 112.505 308.724H117.385C118.47 308.186 119.477 307.504 120.38 306.696V306.696Z" fill="#F7B308"/>
<path d="M34.91 288.309C35.5216 287.812 35.9668 287.139 36.1861 286.382C36.2843 286.002 36.2494 285.6 36.087 285.243C35.9246 284.886 35.6447 284.595 35.294 284.42C34.4728 284.106 33.5984 284.674 32.9308 285.247C32.2632 285.821 31.5011 286.477 30.6326 286.352C31.0806 285.948 31.4158 285.434 31.6053 284.861C31.7949 284.288 31.8323 283.676 31.7138 283.084C31.678 282.839 31.5736 282.61 31.4125 282.422C30.9576 281.937 30.1364 282.144 29.5928 282.528C27.8618 283.746 27.3773 286.075 27.3655 288.22C27.2785 287.435 27.2785 286.642 27.3655 285.856C27.3993 285.465 27.3367 285.071 27.1833 284.709C27.0298 284.348 26.7902 284.029 26.4853 283.781C26.073 283.562 25.6108 283.454 25.1441 283.468C24.7597 283.408 24.3667 283.429 23.9911 283.531C23.6154 283.633 23.2655 283.813 22.9641 284.059C22.3025 284.763 22.4738 285.951 23.0527 286.731C23.6931 287.459 24.4547 288.071 25.3037 288.539C25.951 288.922 26.5025 289.448 26.9165 290.076C26.9651 290.162 27.0047 290.254 27.0347 290.348H31.9147C32.9994 289.805 34.0068 289.119 34.91 288.309V288.309Z" fill="#F7B308"/>
<path d="M63.3981 306.696C64.0071 306.197 64.4518 305.526 64.6742 304.77C64.7728 304.389 64.7381 303.986 64.5757 303.628C64.4134 303.27 64.1333 302.978 63.7821 302.801C62.9609 302.488 62.0865 303.056 61.4189 303.635C60.7513 304.214 59.9951 304.858 59.1266 304.74C59.5732 304.335 59.9074 303.821 60.0969 303.248C60.2863 302.675 60.3245 302.063 60.2078 301.472C60.1668 301.227 60.063 300.997 59.9065 300.804C59.4516 300.319 58.6245 300.532 58.0809 300.91C56.3499 302.134 55.8655 304.486 55.8537 306.602C55.7593 305.817 55.7495 305.025 55.8241 304.238C55.8579 303.846 55.7953 303.453 55.6419 303.091C55.4884 302.729 55.2487 302.411 54.9438 302.163C54.5335 301.938 54.0703 301.828 53.6027 301.844C53.2162 301.789 52.8224 301.816 52.4469 301.923C52.0713 302.03 51.7224 302.214 51.4227 302.465C50.7669 303.174 50.9382 304.362 51.5113 305.142C52.1559 305.856 52.917 306.456 53.7622 306.915C54.4095 307.298 54.9611 307.824 55.3751 308.452C55.4216 308.539 55.4611 308.63 55.4933 308.724H60.3732C61.4686 308.188 62.4862 307.506 63.3981 306.696V306.696Z" fill="#F7B308"/>
<path d="M144.177 269.531C144.177 269.531 146.009 271.925 143.333 275.536C140.656 279.148 138.458 282.203 139.345 284.455C139.345 284.455 143.38 277.747 146.665 277.652C149.949 277.558 147.793 273.568 144.177 269.531Z" fill="#F7B308"/>
<path opacity="0.1" d="M144.177 269.531C144.339 269.762 144.467 270.014 144.555 270.282C147.758 274.047 149.465 277.564 146.387 277.652C143.516 277.735 140.071 282.865 139.25 284.154C139.25 284.254 139.309 284.355 139.345 284.449C139.345 284.449 143.38 277.741 146.665 277.646C149.949 277.552 147.793 273.568 144.177 269.531Z" fill="black"/>
<path d="M147.58 272.581C147.58 273.426 147.486 274.106 147.368 274.106C147.249 274.106 147.161 273.426 147.161 272.581C147.161 271.736 147.279 272.138 147.391 272.138C147.504 272.138 147.58 271.742 147.58 272.581Z" fill="#FFD037"/>
<path d="M148.75 273.586C148.012 273.994 147.362 274.236 147.309 274.135C147.255 274.035 147.805 273.621 148.543 273.219C149.282 272.817 148.992 273.107 149.051 273.219C149.11 273.332 149.489 273.184 148.75 273.586Z" fill="#FFD037"/>
<path d="M134.518 269.531C134.518 269.531 132.686 271.925 135.363 275.536C138.039 279.148 140.237 282.203 139.345 284.455C139.345 284.455 135.315 277.747 132.031 277.652C128.746 277.558 130.902 273.568 134.518 269.531Z" fill="#F7B308"/>
<path opacity="0.1" d="M134.518 269.531C134.356 269.762 134.229 270.014 134.14 270.282C130.938 274.047 129.23 277.564 132.308 277.652C135.18 277.735 138.624 282.865 139.445 284.154C139.418 284.254 139.384 284.353 139.345 284.449C139.345 284.449 135.315 277.741 132.031 277.646C128.746 277.552 130.902 273.568 134.518 269.531Z" fill="black"/>
<path d="M131.115 272.581C131.115 273.426 131.209 274.106 131.328 274.106C131.446 274.106 131.534 273.426 131.534 272.581C131.534 271.736 131.416 272.138 131.304 272.138C131.192 272.138 131.115 271.742 131.115 272.581Z" fill="#FFD037"/>
<path d="M129.945 273.586C130.684 273.994 131.333 274.236 131.387 274.135C131.44 274.035 130.89 273.621 130.152 273.219C129.413 272.817 129.703 273.107 129.644 273.219C129.585 273.332 129.207 273.184 129.945 273.586Z" fill="#FFD037"/>
<path d="M131.7 284.142C131.7 284.142 136.81 283.988 138.352 282.889C139.894 281.79 146.222 280.477 146.623 282.239C147.025 284 154.304 290.998 148.537 291.045C142.771 291.093 135.115 290.147 133.578 289.207C132.042 288.268 131.7 284.142 131.7 284.142Z" fill="#A8A8A8"/>
<path opacity="0.2" d="M148.62 290.431C142.848 290.478 135.203 289.532 133.661 288.593C132.48 287.883 132.025 285.318 131.889 284.136H131.723C131.723 284.136 132.042 288.273 133.584 289.201C135.126 290.129 142.765 291.087 148.543 291.039C150.209 291.039 150.782 290.448 150.753 289.556C150.499 290.094 149.861 290.425 148.62 290.431Z" fill="black"/>
<path opacity="0.1" d="M469.793 48.5548C462.736 48.5548 457.015 42.831 457.015 35.7704C457.015 28.7097 462.736 22.986 469.793 22.986C476.851 22.986 482.572 28.7097 482.572 35.7704C482.572 42.831 476.851 48.5548 469.793 48.5548Z" fill="#F7B308"/>
<path opacity="0.1" d="M248.772 28.3764C241.714 28.3764 235.993 22.6526 235.993 15.5919C235.993 8.53128 241.714 2.8075 248.772 2.8075C255.829 2.8075 261.55 8.53128 261.55 15.5919C261.55 22.6526 255.829 28.3764 248.772 28.3764Z" fill="#F7B308"/>
<path opacity="0.1" d="M46.0406 78.8817C38.983 78.8817 33.2617 73.1579 33.2617 66.0972C33.2617 59.0366 38.983 53.3128 46.0406 53.3128C53.0982 53.3128 58.8195 59.0366 58.8195 66.0972C58.8195 73.1579 53.0982 78.8817 46.0406 78.8817Z" fill="#F7B308"/>
<path opacity="0.1" d="M524.584 174.419C512.756 174.419 503.167 164.827 503.167 152.994C503.167 141.161 512.756 131.568 524.584 131.568C536.412 131.568 546 141.161 546 152.994C546 164.827 536.412 174.419 524.584 174.419Z" fill="#F7B308"/>
<path opacity="0.1" d="M504.054 280.217C492.226 280.217 482.637 270.625 482.637 258.792C482.637 246.959 492.226 237.366 504.054 237.366C515.882 237.366 525.47 246.959 525.47 258.792C525.47 270.625 515.882 280.217 504.054 280.217Z" fill="#F7B308"/>
<path opacity="0.1" d="M102.952 186.896C91.1239 186.896 81.5355 177.304 81.5355 165.471C81.5355 153.638 91.1239 144.045 102.952 144.045C114.78 144.045 124.368 153.638 124.368 165.471C124.368 177.304 114.78 186.896 102.952 186.896Z" fill="#F7B308"/>
<path d="M280.048 205.591C280.804 205.662 281.572 205.627 282.323 205.745C283.582 205.996 284.784 206.479 285.867 207.169C291.244 210.231 296.319 214.439 298.546 220.208C298.729 220.563 298.787 220.969 298.711 221.361C298.579 221.684 298.363 221.965 298.085 222.176L295.994 224.079C295.729 224.354 295.414 224.575 295.066 224.73C294.502 224.877 293.907 224.859 293.353 224.676C287.604 223.358 281.496 221.839 277.46 217.536C275.546 215.497 273.78 212.69 270.962 212.613C269.78 212.613 268.675 213.068 267.512 213.204C266.348 213.34 264.947 212.843 264.67 211.709C264.58 211.144 264.645 210.566 264.859 210.036L266.596 204.25C267.068 202.666 271.836 202.583 273.425 202.867C275.848 203.286 277.478 205.355 280.048 205.591Z" fill="#65617D"/>
<path d="M259.583 238.188C259.666 240.168 259.506 242.171 259.831 244.134C260.117 245.681 260.612 247.182 261.302 248.596C262.365 250.87 263.715 252.997 265.32 254.926C266.814 256.699 268.604 258.366 270.82 259.064C273.035 259.761 275.759 259.259 277.141 257.391C278.27 255.872 278.323 253.845 278.24 251.947C278.039 247.284 277.307 242.556 275.215 238.383C274.317 236.61 273.177 234.919 272.261 233.128C270.347 229.411 269.254 225.001 265.952 222.436C263.88 223.394 261.664 224.003 259.394 224.239C258.514 224.334 255.997 224.393 255.702 225.522C255.501 226.284 257.155 228.418 257.474 229.168C258.735 232.016 259.45 235.076 259.583 238.188Z" fill="#65617D"/>
<path d="M283.002 152.946C282.293 154.755 281.395 156.528 281.23 158.455C281.112 159.637 281.23 160.819 281.23 162.001C281.13 163.621 280.861 165.225 280.426 166.789L277.136 180.265C276.645 182.28 276.155 184.349 276.409 186.406C276.58 187.777 277.077 189.107 277.071 190.484C277.008 191.528 276.842 192.564 276.574 193.575C275.951 196.7 276.122 199.931 277.071 202.973C277.168 203.202 277.202 203.453 277.171 203.7C277.088 204.084 276.716 204.32 276.379 204.504C272.837 206.443 268.975 207.73 264.977 208.304C261.369 199.717 258.848 190.713 257.474 181.5C256.635 175.92 256.227 170.27 255.152 164.732C255.128 164.412 254.992 164.111 254.768 163.881C254.366 163.544 253.758 163.757 253.285 163.981C247.248 166.886 241.439 170.245 235.91 174.029C233.966 171.51 232.599 168.595 231.905 165.489C231.212 162.383 231.21 159.162 231.898 156.055C232.593 153.376 233.584 150.783 234.852 148.324C236.204 145.333 237.889 142.504 239.874 139.89C244.258 134.393 250.686 130.882 257.303 128.5C261.326 127.046 265.467 125.971 269.603 124.871C271.919 124.251 275.8 122.229 278.051 123.802C280.414 125.439 281.986 129.499 282.955 132.076C284.151 135.273 284.802 138.647 284.881 142.059C284.978 145.777 284.34 149.477 283.002 152.946V152.946Z" fill="#3F3D56"/>
<path d="M235.508 169.194C236.743 170.542 235.703 172.693 235.939 174.514C236.094 175.336 236.388 176.125 236.808 176.848L242.462 187.954C243.407 189.621 244.115 191.411 244.565 193.274C245.339 197.281 243.75 201.785 245.782 205.325C246.438 206.466 247.454 207.447 247.726 208.736C247.927 209.675 247.726 210.657 247.826 211.608C247.962 212.725 248.559 213.73 248.89 214.806C249.148 215.839 249.331 216.89 249.439 217.95C250.156 222.47 252.522 226.564 256.08 229.44C258.118 231.169 260.736 232.06 263.406 231.934C266.04 231.71 268.658 229.919 269.195 227.33C269.378 226.449 269.343 225.468 269.892 224.753C270.672 223.731 272.315 223.689 273.065 222.643L270.158 217.856C269.254 216.372 268.333 214.823 268.185 213.092C268.008 210.97 269.03 208.854 268.664 206.756C268.35 204.953 267.057 203.452 266.667 201.667C266.182 199.45 267.151 197.21 267.677 195C268.965 189.556 267.523 183.882 266.088 178.45C264.179 171.263 262.224 163.964 258.36 157.61C250.65 161.765 243.561 165.754 235.508 169.194Z" fill="#3F3D56"/>
<path d="M235.437 56.6109C234.976 57.8639 235.225 59.2529 235.313 60.5827C235.52 63.538 234.894 66.4932 235.036 69.4899C235.177 72.4865 236.099 75.3472 236.737 78.2611C238.551 86.5772 238.114 95.242 239.756 103.594C241.782 113.937 246.964 123.571 247.986 134.068C248.311 137.402 248.269 140.972 250.095 143.785C260.943 139.008 271.198 132.982 280.651 125.829C278.571 110.397 276.515 94.8873 276.793 79.3191C276.927 77.4423 276.796 75.5559 276.403 73.7159C275.91 72.1703 275.202 70.7019 274.3 69.3539C272.013 65.6362 269.497 62.0663 266.986 58.5022C265.379 56.2208 263.642 53.827 261.078 52.7572C258.514 51.6874 255.477 52.1662 252.683 52.6745C249.319 53.2892 245.959 53.9039 242.604 54.5186C240.506 54.9027 236.335 54.1698 235.437 56.6109Z" fill="#F7B308"/>
<path d="M316.335 115.746C317.713 114.366 319.216 113.118 320.825 112.016C318.727 109.463 319.141 105.769 318.627 102.5C318.206 100.377 317.566 98.3032 316.719 96.3118C316.506 95.7503 316.205 95.1297 315.62 94.9819C315.261 94.9375 314.896 94.9948 314.568 95.1474C312.796 95.774 309.098 95.7385 307.721 96.8851C306.061 98.28 307.579 101.2 308.205 102.943C308.649 104.114 315.454 116.632 316.335 115.746Z" fill="#BE6F72"/>
<path d="M311.189 226.124C310.299 227.565 309.718 229.175 309.482 230.853C309.34 232.531 309.954 234.37 311.384 235.256C312.814 236.143 314.864 235.847 316.565 235.315C320.174 234.141 323.495 232.218 326.31 229.672C329.124 227.125 331.37 224.013 332.901 220.539C333.438 219.298 333.905 217.98 334.856 217.022C335.563 216.401 336.347 215.874 337.19 215.456C339.512 214.144 341.751 212.418 342.826 209.971C343.901 207.524 343.417 204.255 341.189 202.801C340.495 202.4 339.728 202.141 338.933 202.04C338.138 201.938 337.33 201.996 336.558 202.21C335.018 202.648 333.543 203.29 332.174 204.12C329.882 205.367 327.081 206.442 325.084 208.103C323.312 209.563 321.723 211.537 320.21 213.257C318.478 215.236 316.855 217.308 315.348 219.463C314.864 220.096 310.781 225.551 311.189 226.124Z" fill="#65617D"/>
<path d="M354.494 213.718C354.695 216.692 355.22 219.635 356.06 222.495C356.538 224.103 357.17 225.776 358.5 226.798C359.624 227.527 360.898 227.994 362.228 228.163C362.691 228.289 363.176 228.319 363.651 228.252C364.467 228.081 365.046 227.377 365.548 226.709C367.521 224.097 369.441 221.337 370.274 218.169C371.456 213.576 370.274 208.653 368.224 204.362C367.487 202.632 366.413 201.067 365.063 199.758C363.396 198.387 361.393 197.487 359.262 197.151C357.082 196.714 354.406 195.78 354.246 198.434C354.013 203.529 354.096 208.633 354.494 213.718V213.718Z" fill="#65617D"/>
<path d="M321.805 102.624C317.729 104.734 313.204 107.418 312.353 111.927C311.827 114.682 312.837 117.501 312.672 120.303C312.524 122.767 311.49 125.149 311.62 127.608C311.758 128.77 311.955 129.924 312.211 131.066C312.56 133.247 312.353 135.469 312.441 137.674C312.636 142.638 314.296 147.414 315.1 152.314C315.669 155.813 315.802 159.368 315.496 162.9C315.301 165.181 314.905 167.451 314.905 169.744C314.905 171.396 315.041 173.044 315.313 174.673C316.105 179.792 317.7 184.753 320.039 189.373C322.881 194.97 322.479 202.193 322.178 208.464C322.046 209.328 322.156 210.212 322.497 211.017C323.241 212.371 325.096 212.566 326.632 212.436C332.329 211.915 337.611 209.238 341.402 204.953C341.955 204.414 342.33 203.719 342.477 202.961C342.607 201.696 341.591 200.656 340.859 199.61C338.365 196.063 338.998 191.258 338.702 186.902C338.487 183.733 337.729 180.624 336.463 177.711C335.731 176.027 334.815 174.366 334.649 172.534C334.496 170.826 335.016 169.135 335.53 167.504L337.302 161.877C340.049 153.135 342.814 144.341 346.973 136.178C349.702 137.954 351.655 140.701 352.438 143.862C353.986 149.43 351.782 155.647 353.892 161.002C354.241 161.745 354.531 162.514 354.76 163.302C354.884 163.982 354.932 164.674 354.902 165.364C354.847 171.126 354.496 176.88 353.85 182.605C353.818 183.472 353.575 184.319 353.141 185.07C352.793 185.572 352.285 185.945 351.912 186.423C350.878 187.765 351.073 189.645 351.322 191.317L352.503 199.226C352.524 199.627 352.657 200.014 352.887 200.343C353.166 200.613 353.513 200.801 353.892 200.886C357.646 202.053 361.603 202.415 365.507 201.95C366.659 201.814 367.704 201.04 368.667 200.39C368.768 199.208 367.297 198.422 367.243 197.246C367.301 196.549 367.624 195.901 368.147 195.437C370.345 192.955 372.968 190.318 372.945 187.003C372.945 186.134 372.738 185.265 372.767 184.396C372.844 182.168 374.38 180.259 374.918 178.113C375.58 175.459 374.699 172.705 374.363 169.992C373.902 166.34 374.445 162.64 374.953 158.993L376.932 145.611C377.163 143.534 377.574 141.482 378.161 139.476C378.906 137.502 379.781 135.579 380.779 133.719C382.669 129.878 384.223 125.882 385.771 121.898C386.263 120.816 386.572 119.66 386.686 118.476C386.775 116.449 385.729 114.534 384.43 112.974C381.995 110.074 378.673 108.059 374.977 107.24C374.359 107.068 373.71 107.042 373.081 107.163C372.551 107.339 372.054 107.601 371.609 107.938C367.042 110.926 361.846 112.816 356.427 113.459C351.007 114.102 345.513 113.48 340.374 111.644C339.783 112.093 338.69 111.898 338.011 111.579C336.115 110.71 334.567 109.262 332.901 108.032C329.799 105.68 325.616 103.446 321.805 102.624Z" fill="#3F3D56"/>
<path d="M444.259 254.412C443.946 255.318 443.474 256.16 442.865 256.9C440.726 259.69 437.743 261.918 436.366 265.175C436.077 265.873 435.864 266.605 435.598 267.315C434.79 269.455 433.472 271.366 431.758 272.882C430.451 273.968 429.031 274.909 427.522 275.69C424.911 277.114 422.087 278.403 419.121 278.326C418.525 278.313 417.931 278.242 417.349 278.113C416.426 277.922 415.536 277.595 414.708 277.144C412.8 276.092 411.163 274.035 411.541 271.889C411.617 271.48 411.747 271.083 411.925 270.707C412.239 270.109 412.6 269.538 413.006 268.999C414.005 267.616 415.033 266.198 416.492 265.311C418.134 264.306 420.202 264.058 421.679 262.817C422.262 262.289 422.765 261.68 423.174 261.008C424.513 258.95 425.51 256.688 426.128 254.312C426.577 252.538 426.878 250.594 428.172 249.294C429.466 247.993 431.244 247.698 432.969 247.402C433.552 247.282 434.146 247.224 434.742 247.231C435.586 247.26 436.461 247.503 437.253 247.107C438.044 246.711 438.31 246.149 439.267 246.226C440.029 246.329 440.747 246.642 441.341 247.13C443.586 248.791 445.075 251.746 444.259 254.412Z" fill="#3F3D56"/>
<path d="M423.268 257.101C422.884 259.105 422.294 261.239 420.746 262.545C419.759 263.396 418.383 263.928 417.892 265.128C417.402 266.328 418.034 267.835 418.849 268.934C419.89 270.324 421.18 271.509 422.654 272.427C423.907 273.202 425.401 273.793 426.837 273.45C428.018 273.172 428.952 272.321 429.832 271.499C431.853 269.626 433.92 267.681 435.055 265.169C436.236 262.521 436.295 259.454 437.583 256.847C438.334 255.328 439.492 253.998 439.947 252.367C440.15 251.777 440.15 251.136 439.947 250.547C439.726 250.125 439.393 249.772 438.984 249.529C438.575 249.286 438.106 249.161 437.631 249.169C436.679 249.201 435.741 249.401 434.86 249.761C432.193 250.712 429.462 251.476 426.689 252.048C425.584 252.255 424.917 252.249 424.326 253.319C423.78 254.517 423.423 255.793 423.268 257.101V257.101Z" fill="#FBBEBE"/>
<path d="M416.415 274.041C416.853 274.711 417.164 275.457 417.331 276.24C417.47 276.848 417.492 277.478 417.396 278.096C416.473 277.904 415.583 277.577 414.755 277.126C412.847 276.074 411.21 274.017 411.588 271.872C411.665 271.463 411.794 271.065 411.972 270.69C412.254 270.626 412.548 270.639 412.824 270.725C413.1 270.811 413.348 270.968 413.544 271.18C414.644 271.978 415.613 272.944 416.415 274.041V274.041Z" fill="#FBBEBE"/>
<path d="M437.589 229.133C437.846 229.686 437.923 230.307 437.808 230.906C437.536 232.088 436.325 232.768 435.232 233.306L424.84 238.389C424.119 238.722 423.417 239.095 422.737 239.506C420.964 240.593 419.57 242.13 418.058 243.537C416.545 244.943 414.861 246.261 412.859 246.758C410.859 247.196 408.77 246.922 406.951 245.984C405.97 245.495 405.06 244.877 404.245 244.146C403.539 243.526 402.887 242.848 402.295 242.118C401.787 241.581 401.423 240.925 401.238 240.209C401.043 239.127 401.58 238.064 402.207 237.171C402.567 236.657 402.962 236.167 403.388 235.705C407.329 231.349 413.786 229.091 419.34 228.205C421.549 227.85 423.647 227.023 425.773 226.349C427.9 225.675 430.151 225.167 432.361 225.48C434.57 225.793 436.744 227.064 437.589 229.133Z" fill="#3F3D56"/>
<path opacity="0.1" d="M437.589 229.133C437.846 229.686 437.923 230.307 437.808 230.906C437.536 232.088 436.325 232.768 435.232 233.306L424.84 238.389C424.119 238.722 423.417 239.095 422.737 239.506C420.964 240.593 419.57 242.13 418.058 243.537C416.545 244.943 414.861 246.261 412.859 246.758C410.859 247.196 408.77 246.922 406.951 245.984C405.97 245.495 405.06 244.877 404.245 244.146C403.539 243.526 402.887 242.848 402.295 242.118C401.787 241.581 401.423 240.925 401.238 240.209C401.043 239.127 401.58 238.064 402.207 237.171C402.567 236.657 402.962 236.167 403.388 235.705C407.329 231.349 413.786 229.091 419.34 228.205C421.549 227.85 423.647 227.023 425.773 226.349C427.9 225.675 430.151 225.167 432.361 225.48C434.57 225.793 436.744 227.064 437.589 229.133Z" fill="black"/>
<path d="M411.583 232.378C410.784 233.275 410.126 234.29 409.633 235.386C409.189 236.104 409.031 236.963 409.19 237.792C409.422 238.35 409.795 238.838 410.271 239.21L411.305 240.168C411.617 240.492 411.98 240.764 412.38 240.972C412.946 241.184 413.55 241.274 414.153 241.238C415.541 241.238 417.036 241.238 418.164 240.404C419.706 239.293 419.984 236.994 419.281 235.227C418.578 233.459 417.106 232.124 415.624 230.93C414.418 229.954 412.427 231.485 411.583 232.378Z" fill="#FBBEBE"/>
<path d="M405.273 238.489C405.464 239.47 405.372 240.485 405.007 241.415C404.747 242.301 404.493 243.188 404.239 244.092C404.239 244.092 404.239 244.092 404.239 244.128C403.533 243.508 402.881 242.83 402.289 242.1C401.781 241.564 401.417 240.907 401.232 240.191C401.037 239.11 401.574 238.046 402.201 237.153C402.561 236.639 402.956 236.149 403.382 235.688C403.66 236.048 403.902 236.403 404.103 236.633C404.62 237.162 405.019 237.795 405.273 238.489V238.489Z" fill="#FBBEBE"/>
<path d="M432.42 194.438C433.643 199.58 433.123 204.959 432.473 210.207C431.977 214.203 431.421 218.34 432.603 222.188C433.04 223.624 433.731 225.084 433.466 226.568C432.963 229.363 429.596 230.439 426.807 230.965C426.003 231.17 425.167 231.22 424.344 231.113C423.518 230.888 422.752 230.484 422.099 229.931C418.135 227.048 415.125 223.044 413.455 218.435C412.398 215.35 412.061 212.069 411.736 208.824C411.193 203.363 410.643 197.837 411.441 192.411C411.677 190.815 412.032 189.237 412.179 187.629C412.365 184.833 412.21 182.025 411.718 179.266C410.701 172.432 409.161 165.686 407.11 159.087C412.736 159.835 418.455 158.801 423.463 156.132C422.495 156.652 423.605 164.945 423.723 166.109C424.082 169.58 424.708 173.019 425.596 176.393C427.245 182.7 430.925 188.173 432.42 194.438Z" fill="#3F3D56"/>
<path opacity="0.1" d="M432.42 194.438C433.643 199.58 433.123 204.959 432.473 210.207C431.977 214.203 431.421 218.34 432.603 222.188C433.04 223.624 433.731 225.084 433.466 226.568C432.963 229.363 429.596 230.439 426.807 230.965C426.003 231.17 425.167 231.22 424.344 231.113C423.518 230.888 422.752 230.484 422.099 229.931C418.135 227.048 415.125 223.044 413.455 218.435C412.398 215.35 412.061 212.069 411.736 208.824C411.193 203.363 410.643 197.837 411.441 192.411C411.677 190.815 412.032 189.237 412.179 187.629C412.365 184.833 412.21 182.025 411.718 179.266C410.701 172.432 409.161 165.686 407.11 159.087C412.736 159.835 418.455 158.801 423.463 156.132C422.495 156.652 423.605 164.945 423.723 166.109C424.082 169.58 424.708 173.019 425.596 176.393C427.245 182.7 430.925 188.173 432.42 194.438Z" fill="black"/>
<path d="M401.746 164.306C399.383 171.157 399.903 178.639 400.925 185.815C401.947 192.99 403.453 200.165 403.01 207.394C402.839 210.231 402.378 213.145 403.205 215.858C403.665 217.181 404.273 218.448 405.019 219.635L423.871 252.249C424.352 253.095 425.035 253.809 425.861 254.325C426.686 254.84 427.626 255.143 428.597 255.204C430.612 255.346 432.591 254.684 434.47 253.945C435.718 253.531 436.878 252.888 437.891 252.048C438.392 251.63 438.786 251.096 439.037 250.493C439.288 249.89 439.389 249.235 439.332 248.584C438.487 242.922 437.217 237.124 436.278 231.444C435.639 227.59 434.245 223.9 432.178 220.586C430.718 218.222 428.922 216.1 427.664 213.641C424.048 206.596 425.301 198.002 428.089 190.59C430.878 183.179 435.031 176.299 437.247 168.721C437.903 166.613 438.279 164.427 438.363 162.22C438.391 159.941 437.968 157.679 437.121 155.563C436.273 153.448 435.017 151.52 433.424 149.891C432.959 149.364 432.373 148.958 431.717 148.708C430.949 148.53 430.15 148.545 429.389 148.75C418.891 150.789 405.214 154.188 401.746 164.306Z" fill="#3F3D56"/>
<path d="M232.288 62.0367C231.946 64.6256 232.879 67.2439 234.208 69.484C239.236 77.8769 250.828 81.5887 259.79 77.6819C263.482 76.0683 266.608 73.4086 269.668 70.7843C270.696 69.8977 271.765 68.9698 272.285 67.7168C273.201 65.5003 272.096 62.8583 270.294 61.2743C268.492 59.6903 266.159 58.9101 263.837 58.2067C256.174 55.8189 234.114 48.2889 232.288 62.0367Z" fill="#FBBEBE"/>
<path d="M236.773 53.8211C229.795 59.4361 219.639 64.7851 211.735 68.9461C209.047 70.3646 206.063 71.9605 205.094 74.8566C204.574 76.4052 204.746 78.0897 204.917 79.721C205.248 82.8595 205.59 86.0452 206.802 88.9591C208.225 92.3695 210.742 95.1829 212.763 98.28C216.307 103.706 218.387 110.101 222.765 114.894C219.811 124.712 216.579 134.517 215.528 144.707C215.469 144.987 215.5 145.279 215.616 145.54C215.737 145.713 215.894 145.856 216.077 145.96L223.426 150.783C224.228 151.251 224.945 151.85 225.547 152.556C226.847 154.247 226.676 156.623 227.479 158.591C227.92 159.552 228.55 160.413 229.332 161.124C230.113 161.835 231.031 162.381 232.028 162.728C234.037 163.421 236.176 163.647 238.285 163.39C240.969 163.221 243.554 162.311 245.753 160.76C247.625 159.341 248.961 157.35 250.249 155.387C251.203 154.049 251.996 152.603 252.612 151.079C253.397 148.904 253.445 146.533 253.415 144.216C253.396 139.808 252.974 135.41 252.157 131.077C251.814 129.357 251.389 127.661 251.117 125.929C250.573 122.442 250.68 118.884 250.278 115.379C249.729 111.437 248.85 107.548 247.649 103.753C246.992 101.403 246.479 99.0144 246.113 96.6014C245.422 92.3577 244.045 88.2617 242.669 84.1893L240.305 77.209C239.803 75.7018 239.295 74.2006 238.699 72.7288C237.588 69.9805 236.158 67.303 235.78 64.3714C235.361 61.1738 238.811 57.3792 237.647 54.3767C237.552 54.0457 237.038 53.6083 236.773 53.8211Z" fill="#3F3D56"/>
<path d="M206.985 73.2076C205.348 73.9464 204.444 75.7078 203.859 77.41C202.541 81.2463 202.224 85.3559 202.938 89.3492C203.169 90.3531 203.327 91.3724 203.41 92.399C203.398 93.5891 203.282 94.7757 203.062 95.9454C202.471 100.467 203.062 105.059 202.867 109.622C202.666 114.753 201.549 120.173 203.7 124.836C205.13 127.933 207.835 130.238 210.506 132.33C220.448 140.082 231.417 146.416 243.1 151.15C241.085 148.726 241.05 145.079 242.391 142.225C243.732 139.37 246.225 137.224 248.89 135.558C245.498 134.804 242.214 133.63 239.112 132.064C232.921 128.92 227.615 124.316 222.375 119.759C221.602 119.203 221 118.441 220.638 117.56C220.106 115.787 221.571 114.102 222.588 112.548C225.666 107.82 224.951 101.643 223.663 96.17C222.227 90.1708 220.118 84.1953 216.272 79.3723C213.873 76.3579 210.742 74.041 206.985 73.2076Z" fill="#3F3D56"/>
<path d="M243.62 151.297C244.151 152.163 244.84 152.921 245.652 153.531C247.425 154.714 249.859 154.264 251.838 153.425C253.677 152.645 255.374 151.564 256.859 150.227C257.498 149.548 258.252 148.988 259.087 148.573C260.635 147.981 262.797 148.425 263.665 147C263.767 146.851 263.816 146.672 263.807 146.492C263.754 145.978 263.081 145.836 262.561 145.806C260.149 145.647 257.808 144.924 255.725 143.696C256.39 143.215 256.959 142.614 257.403 141.923C257.587 141.682 257.687 141.387 257.687 141.084C257.614 140.754 257.433 140.459 257.173 140.245C255.274 138.452 252.884 137.265 250.308 136.835C247.733 136.406 245.088 136.753 242.71 137.833C242.246 138.021 241.839 138.327 241.528 138.72C241.31 139.082 241.163 139.484 241.097 139.902C240.713 141.557 239.325 144.039 239.827 145.712C240.382 147.633 242.48 149.672 243.62 151.297Z" fill="#FBBEBE"/>
<path d="M283.906 143.844C276.557 135.351 273.272 124.174 270.223 113.364L268.043 105.68L262.785 87.1741C262.011 84.4435 261.237 81.7128 260.723 78.929C259.843 74.1237 259.76 69.2121 259.813 64.33C259.889 62.3062 260.352 60.3156 261.178 58.4668C261.692 57.1901 261.94 55.8307 262.36 54.5126C262.893 52.6751 263.692 50.925 264.729 49.3173C265.018 48.8393 265.378 48.4087 265.798 48.0406C266.525 47.5463 267.349 47.2119 268.215 47.0595C270.093 46.5008 272.039 46.2044 273.998 46.1788C275.96 46.2498 277.98 46.9295 279.245 48.4189C280.208 49.5596 280.651 51.0373 281.413 52.3199C281.768 52.845 282.089 53.3918 282.376 53.9571C282.701 54.8158 282.88 55.7227 282.908 56.6404C283.215 60.3641 283.477 64.0916 283.693 67.8231C283.794 69.5194 283.882 71.2276 283.817 72.9298C283.764 74.2538 283.623 75.5718 283.481 76.8898L282.081 89.7984C281.756 92.8305 281.986 95.6675 281.714 98.7055C281.053 106.04 282.63 113.375 284.249 120.574C285.023 123.997 285.82 127.466 287.474 130.563C288.934 133.306 291.12 136.09 290.541 139.145C290.34 140.209 289.802 141.202 289.719 142.278C289.76 142.944 289.694 143.612 289.525 144.258C289.283 144.697 288.909 145.048 288.456 145.26C288.002 145.473 287.493 145.536 287.002 145.44C285.832 145.234 284.752 144.678 283.906 143.844Z" fill="#3F3D56"/>
<path d="M283.008 109.853C282.784 111.549 282.955 113.269 282.872 114.977C282.687 117.177 282.291 119.354 281.691 121.479C281.1 123.843 280.344 126.491 278.258 127.803C277.735 128.075 277.235 128.389 276.763 128.743C276.531 128.926 276.36 129.176 276.274 129.459C276.187 129.742 276.189 130.045 276.279 130.327L277.904 130.055C277.719 130.196 277.567 130.374 277.456 130.578C277.345 130.782 277.279 131.007 277.261 131.239C277.243 131.47 277.275 131.703 277.353 131.921C277.431 132.14 277.555 132.339 277.716 132.507C277.876 132.674 278.071 132.806 278.286 132.893C278.501 132.98 278.732 133.021 278.964 133.013C279.195 133.005 279.423 132.947 279.631 132.845C279.84 132.743 280.024 132.598 280.172 132.419C280.111 132.952 280.161 133.491 280.32 134.003C280.402 134.254 280.56 134.474 280.771 134.633C280.982 134.791 281.237 134.881 281.502 134.89C281.808 134.842 282.098 134.72 282.346 134.535L286.588 131.905C287.859 131.22 288.916 130.198 289.643 128.95L291.498 126.154C291.907 125.615 292.231 125.017 292.461 124.381C293.152 122.017 291.22 119.392 292.224 117.164C292.526 116.615 292.88 116.096 293.282 115.616C295.427 112.66 295.291 108.641 295.054 104.977C294.978 103.741 294.753 102.275 293.636 101.738C292.75 101.306 291.687 101.69 290.866 102.228C290.044 102.766 289.318 103.475 288.384 103.794C287.793 103.995 287.144 104.019 286.553 104.232C285.726 104.521 284.958 105.65 284.402 106.318C283.617 107.343 283.134 108.568 283.008 109.853V109.853Z" fill="#FBBEBE"/>
<path d="M334.779 56.735C335.281 57.8874 335.985 58.9404 336.859 59.8439C337.298 60.2954 337.837 60.6376 338.432 60.8429C339.027 61.0482 339.662 61.1109 340.286 61.026C341.597 60.766 342.56 59.6843 343.429 58.6618C345.697 55.9962 347.995 53.2951 349.52 50.1389C351.847 45.3336 352.22 39.8487 352.556 34.5233C352.639 33.1521 352.71 31.6981 352.054 30.4982C351.221 28.9674 349.455 28.2463 347.824 27.6376L338.814 24.2686C338.262 24.0069 337.651 23.8948 337.042 23.9435C335.63 24.1799 335.11 25.8821 334.726 27.2593C334.039 29.734 332.897 32.059 331.359 34.1155C329.338 36.8107 324.807 40.4397 327.394 43.8028C330.52 47.8338 332.505 52.1839 334.779 56.735Z" fill="#BE6F72"/>
<path d="M323.253 41.3558C319.306 45.0676 317.971 50.8481 318.16 56.2562C318.349 61.6644 319.85 66.9365 320.707 72.2796C321.563 77.6227 321.735 83.3264 319.413 88.238C318.615 89.9225 317.528 91.4829 316.973 93.2619C316.507 95.0203 316.349 96.846 316.506 98.6582C316.516 100.569 316.88 102.461 317.581 104.238C318.84 107.028 321.427 108.966 323.903 110.739C328.954 114.392 334.106 118.104 340.037 120.013C344.055 121.307 348.309 121.733 352.515 121.963C355.363 122.19 358.227 122.109 361.058 121.721C366.009 120.896 370.56 118.486 374.026 114.853C374.63 114.268 375.127 113.582 375.497 112.826C375.858 111.842 376.032 110.8 376.011 109.752C376.153 105.871 376.129 101.99 375.94 98.1086C375.831 94.4097 375.322 90.7336 374.422 87.1446C373.293 83.0072 371.338 79.1299 369.855 75.0989C364.691 61.0851 365.211 45.1386 358.039 32.0527C356.491 29.2275 353.903 26.2545 350.713 26.7037C350.099 26.7406 349.522 27.0063 349.094 27.4484C348.728 27.9864 348.523 28.618 348.503 29.2688C347.741 35.6285 346.66 42.1538 343.665 47.8929C342.483 50.1448 340.711 53.5729 337.987 54.1757C335.264 54.7786 333.657 52.178 332.198 50.3339C329.633 46.9522 326.625 43.9323 323.253 41.3558V41.3558Z" fill="#E3E8F4"/>
<path d="M304.365 31.7867C303.56 32.222 302.809 32.7496 302.126 33.3589C300.354 35.0375 299.704 37.6086 299.716 40.0437C299.727 42.4788 300.306 44.8785 300.661 47.29C301.612 53.7916 300.803 60.4468 300.425 67.0311C300.309 68.0942 300.373 69.1691 300.614 70.211C300.903 71.2039 301.5 72.0787 301.884 73.0421C303.012 75.891 302.162 79.1417 302.823 82.1325C303.532 85.3182 305.96 88.2144 305.505 91.4474C305.322 92.7123 304.714 93.8766 304.454 95.1297C304.194 96.3827 304.418 97.8958 305.5 98.5696C306.581 99.2434 308.152 98.7528 309.44 99.1252C309.963 99.3184 310.473 99.5475 310.964 99.8108C312.955 100.709 315.33 100.402 317.292 99.4207C319.214 98.371 320.943 96.9997 322.402 95.3661C324.653 93.061 326.833 90.5372 327.82 87.4697C329.261 83.025 327.979 78.1842 326.414 73.775C324.848 69.3658 322.981 64.9092 323.259 60.2222C323.412 57.5979 324.24 55.0741 324.736 52.4972C325.35 48.9267 325.57 45.2995 325.392 41.6809C325.315 39.033 325.138 36.3024 323.997 33.9086C323.184 32.3118 321.984 30.9448 320.506 29.9328C319.028 28.9207 317.319 28.2962 315.537 28.1163C311.402 27.6671 307.857 29.7772 304.365 31.7867Z" fill="#3F3D56"/>
<path opacity="0.1" d="M315.537 88.9177C315.496 90.809 315.157 92.6819 314.533 94.4677C313.475 92.0562 313.351 89.3492 313.209 86.7249C312.619 77.6878 310.616 69.1648 308.483 60.4113C310.037 61.5934 310.911 64.5487 311.656 66.3219C314.61 73.4722 315.936 81.1909 315.537 88.9177V88.9177Z" fill="black"/>
<path d="M355.363 25.9472C358.21 26.6978 360.68 28.3882 363.439 29.4935C366.304 30.6756 369.388 31.178 372.395 31.905C379.355 33.5954 386.344 36.7338 390.544 42.5439C393.64 46.8172 394.922 52.0953 397.043 56.936C398.815 60.9965 401.179 64.8029 402.484 69.0289C404.192 74.5434 403.997 80.4539 403.577 86.2107C403.235 90.9391 402.715 95.7208 400.57 99.9113C399.448 102.11 397.9 104.078 396.777 106.277C395.43 108.919 394.721 111.833 393.599 114.552C392.476 117.27 390.828 119.989 388.223 121.408L383.91 118.884C377.476 115.119 371.042 111.348 364.809 107.258C359.374 103.712 353.892 99.6394 350.997 93.8117C348.433 88.6636 348.179 82.6467 348.84 76.9312C349.502 71.2158 351.014 65.6244 351.794 59.9267C352.788 52.7554 352.638 45.4718 351.351 38.3474C350.76 35.1321 349.189 31.8104 348.864 28.6069C348.503 25.1847 352.899 25.297 355.363 25.9472Z" fill="#3F3D56"/>
<path d="M382.025 119.907C378.723 123.033 373.973 123.943 369.843 125.817C366.775 127.242 364.012 129.25 361.708 131.728C360.438 133.122 359.209 135.02 359.847 136.793C360.384 138.318 362.033 139.098 363.545 139.665C365.424 140.375 367.521 141.001 369.394 140.286C370.493 139.866 371.379 139.027 372.389 138.43C374.865 136.958 377.984 136.952 380.525 135.593C384.105 133.678 385.889 129.464 389.256 127.188C391.1 125.947 393.646 124.93 393.835 122.714C393.844 121.913 393.674 121.119 393.339 120.391C392.659 118.583 391.501 112.371 388.914 112.536C386.096 112.719 384.122 118.411 382.025 119.907Z" fill="#FBBEBE"/>
<path d="M399.329 92.204C398.248 96.0931 395.737 99.4089 393.132 102.494C391.259 104.711 389.203 107.122 389.138 110.024C389.079 112.767 390.911 115.29 393.274 116.691C395.637 118.092 398.42 118.541 401.155 118.719C403.343 118.929 405.551 118.776 407.689 118.263C413.089 116.798 416.835 112.087 421.083 108.446C423.605 106.289 426.441 104.409 428.373 101.708C430.305 99.007 431.12 95.1297 429.218 92.405C428.531 91.5217 427.737 90.7275 426.855 90.0407C423.628 87.2421 420.877 83.9386 418.708 80.2589C417.833 78.7753 416.994 77.1677 415.523 76.2752C413.414 74.9926 410.708 75.5777 408.321 76.2042C405.728 76.884 398.42 78.2138 397.912 81.5237C397.705 82.8831 399.389 84.9991 399.643 86.459C399.966 88.3735 399.859 90.336 399.329 92.204V92.204Z" fill="#FBBEBE"/>
<path d="M385.972 99.6158C385.198 101.019 384.561 102.494 384.069 104.019C382.267 110.284 385.487 116.739 387.023 123.075C388.985 131.19 388.152 139.677 388.246 148.029C388.288 151.847 388.695 156.049 391.442 158.697C392.151 159.371 393.002 159.938 393.481 160.79C393.776 161.413 393.997 162.07 394.136 162.746C394.556 164.206 395.3 165.553 396.313 166.685C397.325 167.818 398.581 168.706 399.985 169.285C401.39 169.863 402.907 170.117 404.423 170.027C405.939 169.936 407.415 169.504 408.741 168.763C410.98 167.516 412.924 165.352 415.488 165.287C416.294 165.326 417.097 165.415 417.892 165.553C420.444 165.808 422.944 164.862 425.336 163.934C425.907 163.754 426.44 163.469 426.908 163.095C427.339 162.699 427.617 162.167 428.013 161.741C429.472 160.169 431.965 160.441 434.068 160.003C435.637 159.652 437.075 158.862 438.212 157.724C439.349 156.586 440.139 155.149 440.49 153.579C440.915 151.546 440.555 149.441 440.201 147.39L438.617 138.253C437.953 134.901 437.493 131.512 437.241 128.104C437.047 124.254 437.377 120.394 438.221 116.632C438.919 113.559 439.958 110.55 440.336 107.418C440.995 101.804 439.519 96.1469 436.201 91.5716C435.38 90.4426 434.305 89.3137 432.91 89.2074C431.782 89.1069 430.724 89.7097 429.744 90.289C421.224 95.3326 412.646 100.272 404.009 105.107C401.645 106.436 399.229 107.772 396.594 108.428C395.802 108.629 394.668 108.547 394.556 107.743C394.542 107.436 394.622 107.133 394.786 106.874C396.263 104.031 398.402 101.59 400.103 98.8829C401.805 96.1758 403.116 92.9723 402.614 89.8279C401.929 85.4778 397.888 82.5994 394.585 86.0098C390.881 89.8811 388.4 94.8578 385.972 99.6158Z" fill="#F86D70"/>
<path d="M412.427 154.779C405.497 155.222 398.414 155.695 391.998 158.354C389.936 159.206 387.75 160.305 385.582 159.779C384.502 159.45 383.499 158.912 382.628 158.195C379.957 156.235 377.433 154.082 375.077 151.752C375.314 150.458 377.068 150.281 378.38 150.292C381.578 150.312 384.733 149.553 387.573 148.082C388.506 147.52 389.496 147.059 390.527 146.705C393.333 145.931 396.192 147.408 399.01 148.129C403.181 149.193 407.577 148.573 411.837 147.946L423.333 146.25C424.403 146.096 425.608 145.972 426.459 146.634C427.027 147.171 427.417 147.871 427.575 148.638C428.981 153.366 428.308 153.762 423.629 154.057L412.427 154.779Z" fill="#FBBEBE"/>
<path opacity="0.1" d="M255.442 72.717C245 72.717 236.536 64.2491 236.536 53.8034C236.536 43.3577 245 34.8897 255.442 34.8897C265.883 34.8897 274.347 43.3577 274.347 53.8034C274.347 64.2491 265.883 72.717 255.442 72.717Z" fill="black"/>
<path d="M255.577 71.8955C245.136 71.8955 236.672 63.4275 236.672 52.9818C236.672 42.5361 245.136 34.0682 255.577 34.0682C266.019 34.0682 274.483 42.5361 274.483 52.9818C274.483 63.4275 266.019 71.8955 255.577 71.8955Z" fill="#FBBEBE"/>
<path d="M239.62 28.9674C238.108 29.9013 236.524 30.9061 235.697 32.4783C235.252 33.5456 234.914 34.6543 234.687 35.7882C233.653 39.3345 230.9 42.4138 230.735 46.1079C230.551 50.1566 233.588 53.6734 237.027 55.7953C237.811 56.3739 238.758 56.6922 239.732 56.7055C240.731 56.6405 241.593 56.0139 242.509 55.612C246.391 53.8861 250.733 56.073 254.845 57.0778C259.118 58.1102 263.601 57.8468 267.724 56.3213C269.94 55.4938 272.09 54.2526 273.479 52.3317C274.867 50.4108 275.363 47.7215 274.182 45.6587C273.591 44.6066 272.61 43.6551 272.675 42.4552C272.71 41.7341 273.136 41.084 273.266 40.3747C273.455 39.2458 272.864 38.1465 272.261 37.183C269.527 32.7812 266.072 28.8709 262.041 25.6162C260.859 24.6468 259.494 23.7012 257.947 23.6302C254.839 23.4943 252.169 25.8112 248.972 25.823C245.345 25.8349 242.74 27.0406 239.62 28.9674Z" fill="#3F3D56"/>
<path opacity="0.1" d="M325.173 48.9863C314.406 48.9863 305.677 40.2538 305.677 29.4816C305.677 18.7095 314.406 9.97693 325.173 9.97693C335.94 9.97693 344.669 18.7095 344.669 29.4816C344.669 40.2538 335.94 48.9863 325.173 48.9863Z" fill="black"/>
<path d="M324.83 48.5076C314.063 48.5076 305.334 39.775 305.334 29.0029C305.334 18.2307 314.063 9.4982 324.83 9.4982C335.598 9.4982 344.327 18.2307 344.327 29.0029C344.327 39.775 335.598 48.5076 324.83 48.5076Z" fill="#BE6F72"/>
<path d="M314.415 40.02C311.662 41.5627 308.264 41.4031 305.192 40.6998C303.45 40.3722 301.798 39.6748 300.348 38.6547C299.628 38.1398 299.034 37.4679 298.611 36.6897C298.188 35.9116 297.948 35.0475 297.908 34.1627C297.908 32.1827 299.208 30.3977 299.367 28.4177C299.562 25.9235 297.937 23.6184 297.766 21.1123C297.595 18.6063 298.829 16.3485 300.035 14.197C302.108 10.503 304.265 6.76161 307.42 3.93638C310.574 1.11116 314.946 -0.691547 319.082 0.260045C321.114 0.726975 322.999 1.82042 325.073 2.0332C326.916 2.2046 328.735 1.64902 330.573 1.4126C332.41 1.17617 334.472 1.32394 335.79 2.5947C336.51 3.30396 336.971 4.30284 337.816 4.82296C338.389 5.08732 338.981 5.30667 339.588 5.47903C341.721 6.33605 342.696 8.74163 343.452 10.9049L348.521 25.4388C346.826 26.6209 344.781 27.1588 342.926 28.069C341.071 28.9792 339.269 30.4332 338.891 32.4664C338.602 34.0091 339.151 35.7822 338.253 37.0707C337.432 38.2528 335.76 38.4538 334.342 38.2528C332.924 38.0519 331.5 37.5613 330.082 37.78C326.538 38.3178 325.22 40.4929 321.941 37.78C318.662 35.067 317.463 38.306 314.415 40.02Z" fill="#3F3D56"/>
<path opacity="0.1" d="M407.683 90.7205C397.895 90.7205 389.959 82.7818 389.959 72.9889C389.959 63.1961 397.895 55.2574 407.683 55.2574C417.472 55.2574 425.407 63.1961 425.407 72.9889C425.407 82.7818 417.472 90.7205 407.683 90.7205Z" fill="black"/>
<path d="M406.998 89.757C397.209 89.757 389.274 81.8184 389.274 72.0255C389.274 62.2327 397.209 54.294 406.998 54.294C416.787 54.294 424.722 62.2327 424.722 72.0255C424.722 81.8184 416.787 89.757 406.998 89.757Z" fill="#FBBEBE"/>
<path d="M393.427 54.69C397.647 51.4512 402.388 48.9566 407.447 47.3136C410.685 46.2616 414.206 45.5405 417.491 46.5098C421.945 47.7806 427.906 49.6779 430.665 53.4074C432.024 55.2396 433.401 57.1251 434.056 59.3179C435.368 63.7271 433.501 68.426 433.625 73.0244C433.773 78.3852 436.615 83.2791 439.716 87.6529C442.818 92.0267 443.444 98.2918 445.276 103.339C445.902 105.071 446.103 107.477 444.49 108.346C443.072 109.132 441.359 108.151 440.047 107.205L432.16 101.501C431.547 100.997 430.84 100.619 430.08 100.39C428.456 100.012 426.866 101.028 425.508 101.992L408.965 113.695C408.638 113.027 408.462 112.295 408.449 111.552C408.435 110.808 408.586 110.071 408.889 109.392C407.335 109.871 406.206 111.165 404.842 112.087C403.477 113.009 401.403 113.31 400.411 112.022C399.418 110.733 400.168 109.002 401.273 107.961C402.378 106.921 403.831 106.301 404.912 105.231C407.057 103.097 407.276 99.7281 408.629 97.0329C409.597 95.1415 411.163 93.5575 411.848 91.542C412.965 88.2499 411.506 84.7035 410.076 81.5355C408.369 77.7764 406.437 73.7632 402.803 71.8009C401.58 71.1389 400.228 70.7488 398.975 70.146C395.856 68.6506 391.962 65.122 390.438 61.9599C389.103 59.1524 391.159 56.4395 393.427 54.69Z" fill="#3F3D56"/>
<path opacity="0.1" d="M420.255 113.287C418.56 114.368 416.646 115.06 414.98 116.189C413.314 117.318 411.854 119.032 411.807 121.041C411.76 122.962 412.989 124.647 414.17 126.172L428.562 145.068L421.224 147.012C422.406 148.643 422.707 150.724 423.322 152.639C423.936 154.554 425.094 156.546 427.055 157.048C428.828 157.503 430.683 156.569 432.514 156.676C433.867 156.759 435.143 157.397 436.496 157.45C438.239 157.515 439.858 156.599 441.311 155.63C444.549 153.461 447.763 150.352 447.739 146.451C447.662 145.131 447.398 143.83 446.953 142.585C444.832 135.664 442.635 128.577 438.239 122.82C435.876 119.747 432.987 117.152 430.098 114.575C429.441 113.914 428.668 113.379 427.818 112.997C425.927 112.288 423.865 113.163 421.91 113.73C419.954 114.297 417.49 114.38 416.362 112.708" fill="black"/>
<path d="M420.876 112.122C419.18 113.198 417.266 113.896 415.6 115.024C413.934 116.153 412.475 117.867 412.421 119.871C412.368 121.875 413.603 123.482 414.785 125.007L429.182 143.885L421.845 145.83C423.026 147.461 423.328 149.536 423.942 151.457C424.556 153.378 425.714 155.364 427.676 155.866C429.448 156.321 431.303 155.387 433.135 155.494C434.488 155.571 435.764 156.215 437.117 156.262C438.86 156.327 440.478 155.411 441.932 154.442C445.169 152.278 448.383 149.164 448.354 145.269C448.283 143.949 448.02 142.647 447.574 141.403C445.453 134.476 443.255 127.389 438.859 121.638C436.496 118.559 433.601 115.964 430.718 113.364C430.058 112.706 429.286 112.171 428.438 111.786C426.547 111.076 424.485 111.951 422.53 112.524C420.574 113.098 418.111 113.174 416.982 111.502" fill="#F86D70"/>
<g opacity="0.1">
<path opacity="0.1" d="M272.864 48.413C271.476 50.3339 269.319 51.581 267.11 52.4026C262.988 53.9342 258.503 54.1976 254.23 53.1591C250.095 52.1543 245.776 49.9675 241.895 51.6933C240.979 52.1011 240.122 52.7218 239.124 52.7927C238.147 52.775 237.2 52.455 236.412 51.8765C234.019 50.3989 231.822 48.2475 230.77 45.7119C230.77 45.8419 230.77 45.9719 230.735 46.1079C230.551 50.1566 233.588 53.6733 237.027 55.7952C237.811 56.3739 238.758 56.6922 239.732 56.7054C240.731 56.6404 241.593 56.0139 242.509 55.612C246.391 53.8861 250.733 56.073 254.845 57.0778C259.118 58.1102 263.601 57.8468 267.724 56.3213C269.94 55.4938 272.09 54.2526 273.479 52.3317C274.867 50.4107 275.363 47.7215 274.182 45.6587L274.093 45.5109C273.902 46.5569 273.482 47.5478 272.864 48.413V48.413Z" fill="black"/>
<path opacity="0.1" d="M272.078 38.5365C272.031 39.4468 272.581 40.2092 273.106 40.9835C273.18 40.7915 273.237 40.5938 273.278 40.3924C273.455 39.3345 272.947 38.306 272.386 37.3781C272.225 37.7463 272.121 38.1369 272.078 38.5365V38.5365Z" fill="black"/>
</g>
<path opacity="0.1" d="M342.07 8.97808L347.139 23.5061C345.443 24.6882 343.399 25.232 341.544 26.1363C339.689 27.0406 337.887 28.5005 337.509 30.5337C337.219 32.0764 337.769 33.8495 336.871 35.1439C336.05 36.326 334.378 36.5211 332.96 36.326C331.542 36.131 330.118 35.6345 328.7 35.8532C325.155 36.391 323.838 38.5661 320.559 35.8827C317.28 33.1994 316.093 36.3851 313.044 38.0992C310.291 39.6477 306.894 39.4881 303.822 38.7789C302.08 38.4531 300.428 37.7578 298.977 36.7398C298.771 36.571 298.574 36.3915 298.386 36.2019C298.839 37.1706 299.52 38.0145 300.371 38.6607C301.822 39.6808 303.474 40.3781 305.216 40.7057C308.288 41.4091 311.715 41.5686 314.438 40.026C317.487 38.312 318.739 35.1853 321.953 37.8096C325.167 40.4338 326.561 38.3179 330.094 37.8096C331.512 37.5909 332.93 38.0814 334.354 38.2824C335.778 38.4834 337.444 38.2824 338.265 37.1003C339.163 35.8118 338.614 34.0387 338.903 32.496C339.281 30.4628 341.083 29.0029 342.938 28.0986C344.793 27.1943 346.837 26.6446 348.533 25.4684L343.44 10.899C342.85 9.29725 342.2 7.56547 341.018 6.42474C341.428 7.25039 341.779 8.10357 342.07 8.97808V8.97808Z" fill="black"/>
<g opacity="0.1">
<path opacity="0.1" d="M407.571 110.03C406.265 110.621 404.617 110.71 403.79 109.605C402.862 108.422 403.548 106.59 404.653 105.544C405.757 104.498 407.211 103.883 408.292 102.813C410.436 100.686 410.655 97.3166 412.008 94.6214C412.977 92.7241 414.542 91.1401 415.228 89.1246C416.344 85.8384 414.885 82.2861 413.455 79.124C411.748 75.3649 409.816 71.3517 406.183 69.3894C404.96 68.7274 403.607 68.3373 402.354 67.7345C399.235 66.2391 395.342 62.7046 393.817 59.5425C392.535 56.8768 394.343 54.288 396.494 52.5326C395.448 53.2123 394.426 53.9275 393.433 54.69C391.159 56.4631 389.109 59.1524 390.479 61.9481C392.004 65.1102 395.897 68.6388 399.016 70.1341C400.269 70.7252 401.622 71.1271 402.845 71.7891C406.478 73.7514 408.41 77.7646 410.117 81.5237C411.553 84.6917 413.012 88.238 411.89 91.5302C411.204 93.5457 409.639 95.1297 408.67 97.0211C407.299 99.7162 407.098 103.085 404.954 105.219C403.873 106.289 402.419 106.903 401.315 107.95C400.21 108.996 399.542 110.804 400.452 112.01C401.362 113.216 403.524 112.968 404.883 112.075C405.799 111.455 406.632 110.639 407.571 110.03Z" fill="black"/>
<path opacity="0.1" d="M443.403 104.787L435.516 99.0897C434.903 98.5838 434.196 98.2042 433.436 97.9726C431.811 97.6003 430.222 98.6169 428.863 99.5803L412.321 111.283C411.994 110.614 411.818 109.882 411.804 109.137C411.791 108.393 411.941 107.654 412.244 106.974C410.726 107.447 409.621 108.712 408.304 109.599C408.495 109.512 408.693 109.439 408.894 109.38C408.591 110.059 408.441 110.796 408.455 111.54C408.468 112.283 408.644 113.015 408.971 113.683L425.513 101.98C426.872 101.017 428.467 99.9999 430.086 100.378C430.846 100.608 431.553 100.985 432.166 101.489L440.053 107.193C441.364 108.139 443.078 109.12 444.496 108.334C444.884 108.095 445.202 107.759 445.419 107.358C445.635 106.958 445.743 106.508 445.73 106.052C444.894 105.754 444.108 105.327 443.403 104.787V104.787Z" fill="black"/>
</g>
<path d="M246.355 143.389C246.355 143.389 280.208 146.102 286.943 141.303L255.973 136.527L246.355 143.389Z" fill="#E3E8F4"/>
<path opacity="0.1" d="M246.355 143.389C246.355 143.389 280.208 146.102 286.943 141.303L255.973 136.527L246.355 143.389Z" fill="black"/>
<path d="M246.355 143.389L255.837 137.384C255.837 137.384 284.125 145.517 291.876 142.16L283.989 131.089L255.961 136.556L246.355 143.389Z" fill="#E3E8F4"/>
<path d="M288.42 63.7626C289.465 65.084 290.304 66.5568 290.907 68.1305C291.179 68.9639 291.315 69.8327 291.545 70.6779C292.193 72.7827 293.192 74.7629 294.499 76.5352C297.412 80.7731 301.051 84.8631 301.783 89.9521C302.138 92.4641 301.748 95.0174 301.252 97.5057C300.983 99.1466 300.515 100.748 299.858 102.276C299.107 103.895 297.991 105.319 297.134 106.886C296.351 108.423 295.692 110.02 295.161 111.661C294.15 110.651 293.554 109.297 292.744 108.115C291.935 106.933 290.73 105.869 289.306 105.851C287.663 105.851 286.311 107.211 284.686 107.424C284.432 107.475 284.169 107.45 283.93 107.353C283.339 107.075 283.292 106.277 283.339 105.639C283.806 101.176 286.358 96.7728 285.153 92.4463C284.042 88.4449 280.072 85.9448 277.986 82.3571C276.474 79.7505 276.025 76.6771 275.623 73.6864C275.121 70.1105 274.613 66.5051 274.837 62.9056C274.95 61.0911 276.391 49.6247 279.026 50.8245C279.942 51.2382 280.739 52.9937 281.312 53.7798L283.676 57.131L288.42 63.7626Z" fill="#3F3D56"/>
<path d="M359.132 137.733L378.138 153.212L402.591 148.839L386.125 135.906L359.132 137.733Z" fill="#E3E8F4"/>
<path opacity="0.1" d="M358.447 136.769L377.452 152.249L401.905 147.875L385.44 134.943L358.447 136.769Z" fill="black"/>
<path d="M358.582 135.948L377.588 151.421L402.047 147.054L385.576 134.115L358.582 135.948Z" fill="#E3E8F4"/>
<path opacity="0.1" d="M358.033 134.157L377.045 149.636L401.498 145.263L385.026 132.33L358.033 134.157Z" fill="black"/>
<path d="M358.175 133.335L377.181 148.815L401.634 144.441L385.168 131.509L358.175 133.335Z" fill="#E3E8F4"/>
<path d="M108.168 344.843C107.72 344.625 107.226 344.519 106.727 344.536C106.229 344.553 105.743 344.691 105.31 344.938C104.878 345.186 104.512 345.536 104.245 345.957C103.978 346.378 103.818 346.858 103.779 347.355L102.721 361.073L108.996 362.208L112.304 352.29L108.168 344.843Z" fill="#3F3D56"/>
<path d="M327.678 252.893L423.7 301.643C424.801 302.205 425.725 303.062 426.368 304.118C427.012 305.174 427.35 306.387 427.345 307.624C427.34 308.861 426.993 310.072 426.341 311.123C425.689 312.174 424.758 313.023 423.652 313.576L216.845 417.406C213.166 419.25 209.09 420.16 204.976 420.057C200.862 419.954 196.837 418.841 193.255 416.815L106.148 367.675C105.091 367.072 104.219 366.192 103.626 365.129C103.033 364.066 102.741 362.862 102.781 361.645C102.822 360.429 103.194 359.246 103.857 358.226C104.52 357.205 105.449 356.385 106.544 355.854L321.776 252.828C322.699 252.386 323.711 252.162 324.735 252.173C325.758 252.185 326.765 252.431 327.678 252.893V252.893Z" fill="#3F3D56"/>
<path d="M424.344 293.161L427.351 295.396L427.587 306.094C427.606 306.928 427.39 307.75 426.964 308.467C426.538 309.184 425.918 309.767 425.177 310.148L214.836 418.133C214.359 418.38 213.826 418.499 213.29 418.48C212.753 418.461 212.23 418.304 211.771 418.024C211.313 417.745 210.934 417.352 210.671 416.884C210.408 416.415 210.27 415.887 210.269 415.349V399.811L424.344 293.161Z" fill="#3F3D56"/>
<path d="M327.678 240.493L423.7 289.237C424.802 289.797 425.727 290.652 426.372 291.707C427.017 292.762 427.357 293.976 427.354 295.213C427.351 296.449 427.005 297.661 426.355 298.713C425.704 299.765 424.775 300.615 423.67 301.17L216.845 405C213.165 406.842 209.09 407.751 204.976 407.648C200.863 407.545 196.838 406.433 193.255 404.409L106.148 355.263C105.091 354.66 104.219 353.78 103.626 352.717C103.033 351.654 102.74 350.45 102.781 349.233C102.822 348.017 103.194 346.834 103.857 345.814C104.52 344.793 105.449 343.973 106.544 343.442L321.776 240.422C322.699 239.981 323.712 239.758 324.735 239.77C325.759 239.782 326.765 240.03 327.678 240.493V240.493Z" fill="#E3E8F4"/>
<path d="M307.804 249.341L413.603 303.085L231.763 394.048L122.655 338.643L307.804 249.341Z" fill="#3F3D56"/>
<path d="M165.221 377.51C159.058 377.51 154.061 374.549 154.061 370.896C154.061 367.244 159.058 364.283 165.221 364.283C171.385 364.283 176.382 367.244 176.382 370.896C176.382 374.549 171.385 377.51 165.221 377.51Z" fill="#3F3D56"/>
<path d="M368.762 267.533C368.191 267.533 367.728 267.07 367.728 266.499C367.728 265.928 368.191 265.465 368.762 265.465C369.333 265.465 369.796 265.928 369.796 266.499C369.796 267.07 369.333 267.533 368.762 267.533Z" fill="#3F3D56"/>
<path d="M371.858 275.802C371.172 275.802 370.617 275.247 370.617 274.561C370.617 273.876 371.172 273.32 371.858 273.32C372.543 273.32 373.098 273.876 373.098 274.561C373.098 275.247 372.543 275.802 371.858 275.802Z" fill="#3F3D56"/>
<path d="M367.314 272.492L354.914 266.706" stroke="#3F3D56" stroke-miterlimit="10"/>
<path d="M257.462 299.396L292.468 319.616C297.554 322.554 299.297 329.06 296.361 334.149C293.424 339.237 286.92 340.981 281.834 338.043L246.827 317.823C241.741 314.885 239.998 308.378 242.935 303.29C245.871 298.201 252.375 296.458 257.462 299.396Z" fill="#F7B308"/>
<path d="M226.15 315.356L261.156 335.576C266.243 338.514 267.985 345.02 265.049 350.109C262.112 355.197 255.608 356.941 250.522 354.003L215.516 333.783C210.429 330.845 208.687 324.338 211.623 319.25C214.56 314.161 221.064 312.418 226.15 315.356Z" fill="#F7B308"/>
<path d="M285.819 281.075L320.826 301.295C325.912 304.233 327.655 310.739 324.718 315.828C321.782 320.917 315.278 322.66 310.191 319.722L275.185 299.502C270.099 296.564 268.356 290.058 271.292 284.969C274.229 279.881 280.733 278.137 285.819 281.075Z" fill="#F7B308"/>
</g>
<defs>
<clipPath id="clip0">
<rect width="546" height="484" fill="white" transform="matrix(-1 0 0 1 546 0)"/>
</clipPath>
</defs>
</svg>
