<svg width="447" height="515" viewBox="0 0 447 515" fill="none" xmlns="http://www.w3.org/2000/svg">
<path d="M290 66.5C290 -70 43.3333 25.5 47.5 179.5C32.8333 214.5 -14.6 236.1 5.00001 296.5C29.5 372 69.6585 311.978 170.5 386C264.5 455 199.5 469 351 510C502.5 551 424 296.5 440.5 209.5C457 122.5 452.5 99.5 290 66.5Z" fill="#F9A826" fill-opacity="0.08"/>
<path d="M361.603 64.7142V426.706C361.599 431.018 359.882 435.152 356.829 438.2C353.776 441.248 349.637 442.961 345.321 442.962H198.234C196.096 442.966 193.978 442.548 192.001 441.733C190.025 440.917 188.229 439.72 186.717 438.21C185.204 436.7 184.005 434.906 183.187 432.932C182.369 430.958 181.95 428.842 181.952 426.706V64.7142C181.952 62.5779 182.373 60.4624 183.191 58.4886C184.009 56.5148 185.209 54.7214 186.721 53.2107C188.233 51.7001 190.028 50.5018 192.003 49.6843C193.979 48.8669 196.096 48.4462 198.234 48.4464H220.246V51.2666C220.245 54.819 221.657 58.2261 224.171 60.7385C226.684 63.2509 230.094 64.663 233.649 64.664H308.459C311.321 64.6701 314.108 63.7535 316.407 62.0504C316.872 61.7127 317.312 61.3432 317.726 60.9447C319.035 59.6954 320.077 58.1934 320.788 56.5298C321.499 54.8662 321.865 53.0756 321.862 51.2666V48.4464H345.321C347.46 48.4458 349.577 48.8661 351.553 49.6834C353.529 50.5007 355.324 51.699 356.836 53.2097C358.348 54.7204 359.547 56.514 360.365 58.488C361.183 60.462 361.604 62.5777 361.603 64.7142Z" fill="#F2F2F2"/>
<path d="M275.936 306.557C293.531 306.557 307.796 292.305 307.796 274.725C307.796 257.144 293.531 242.893 275.936 242.893C258.34 242.893 244.076 257.144 244.076 274.725C244.076 292.305 258.34 306.557 275.936 306.557Z" fill="#F9A826"/>
<path d="M356.015 464.362H185.776C181.942 464.374 178.185 463.293 174.945 461.246C172.347 459.629 170.199 457.384 168.701 454.718C167.202 452.051 166.401 449.05 166.372 445.993V49.3822C166.372 39.2462 175.077 31 185.776 31H225.785V34.6482C225.785 42.4342 232.493 48.7686 240.739 48.7686H297.141C300.315 48.7862 303.416 47.8212 306.019 46.0063C307.864 44.7336 309.378 43.0388 310.435 41.0632C311.492 39.0875 312.061 36.8881 312.095 34.6482V31H356.015C366.714 31 375.419 39.2462 375.419 49.3822V445.993C375.403 448.687 374.781 451.343 373.598 453.764C372.415 456.185 370.703 458.31 368.586 459.98C365.02 462.832 360.583 464.379 356.015 464.362ZM185.776 32.1169C175.693 32.1169 167.49 39.8622 167.49 49.3822V445.993C167.52 448.863 168.273 451.679 169.681 454.181C171.09 456.682 173.107 458.789 175.546 460.305C178.607 462.237 182.156 463.257 185.776 463.245H356.015C360.328 463.263 364.516 461.804 367.883 459.111C369.87 457.546 371.478 455.554 372.589 453.283C373.7 451.012 374.285 448.52 374.301 445.993V49.3822C374.301 39.8622 366.098 32.1169 356.015 32.1169H313.213V34.6482C313.179 37.0686 312.566 39.4457 311.425 41.5812C310.285 43.7167 308.649 45.5487 306.656 46.9242C303.866 48.8694 300.542 49.9039 297.141 49.8855H240.739C231.877 49.8855 224.667 43.0502 224.667 34.6482V32.1169H185.776Z" fill="#3F3D56"/>
<path d="M324.538 327.98H226.233V222.229H324.538V327.98ZM227.493 326.72H323.278V223.488H227.493V326.72Z" fill="#3F3D56"/>
<path d="M303.106 131.186H238.566V132.446H303.106V131.186Z" fill="#3F3D56"/>
<path d="M303.106 148.327H238.566V149.586H303.106V148.327Z" fill="#3F3D56"/>
<path d="M303.106 165.468H238.566V166.727H303.106V165.468Z" fill="#3F3D56"/>
<path d="M51.9997 463.394L51.3998 463.17C51.268 463.12 38.148 458.098 32.002 446.71C25.8558 435.322 28.8653 421.61 28.8964 421.473L29.0381 420.849L29.6377 421.073C29.7695 421.123 42.8892 426.145 49.0355 437.533C55.1817 448.921 52.1722 462.633 52.1411 462.77L51.9997 463.394ZM32.9862 446.18C38.1824 455.808 48.5502 460.744 51.1771 461.871C51.6766 459.058 53.2429 447.682 48.0513 438.063C42.8603 428.445 32.4884 423.502 29.8604 422.372C29.3607 425.187 27.7949 436.561 32.9862 446.18Z" fill="#3F3D56"/>
<path d="M36.699 442.715C47.7441 449.355 51.9979 462.542 51.9979 462.542C51.9979 462.542 38.3441 464.965 27.299 458.326C16.2538 451.686 12 438.499 12 438.499C12 438.499 25.6539 436.076 36.699 442.715Z" fill="#F9A826"/>
<path d="M407.595 462.262L408.619 479.136L414.249 485.273L426.02 476.58L418.343 459.194L407.595 462.262Z" fill="#A0616A"/>
<path d="M421.414 478.114C421.414 478.114 421.642 474.705 422.04 468.228C422.04 468.228 439.327 464.818 438.303 476.579C437.28 488.34 428.579 492.431 428.579 492.431C428.579 492.431 424.485 491.92 424.997 496.011C425.508 500.101 410.154 508.794 402.989 500.613L407.395 474.79C407.395 474.79 412.202 478.113 413.737 476.579C415.272 475.045 421.414 478.114 421.414 478.114Z" fill="#2F2E41"/>
<path d="M392.489 143.436L406.819 173.606L381.055 180.631L376.111 153.152L392.489 143.436Z" fill="#A0616A"/>
<path d="M377.646 160.311C388.67 160.311 397.606 151.382 397.606 140.368C397.606 129.354 388.67 120.426 377.646 120.426C366.623 120.426 357.686 129.354 357.686 140.368C357.686 151.382 366.623 160.311 377.646 160.311Z" fill="#A0616A"/>
<path d="M390.713 148.925C388.901 148.817 387.131 149.429 385.331 149.667C378.892 150.522 372.193 145.853 370.771 139.52C370.657 138.677 370.405 137.858 370.026 137.096C369.035 135.479 366.778 135.171 364.917 135.543C363.057 135.914 361.293 136.785 359.398 136.884C356.473 137.037 353.664 135.238 352.105 132.759C350.545 130.281 350.104 127.232 350.314 124.312L351.717 125.783C352.287 124.578 352.507 123.238 352.352 121.915C353.095 121.717 353.877 121.713 354.622 121.904C355.367 122.094 356.051 122.473 356.608 123.003C357.844 123.134 356.911 120.711 357.83 119.873C358.214 119.523 358.804 119.589 359.325 119.594C361.956 119.619 364.084 117.608 366.158 115.99C369.75 113.192 373.951 111.277 378.42 110.401C381.391 109.822 384.551 109.729 387.368 110.835C389.682 111.742 391.619 113.396 393.41 115.117C397.821 119.355 401.728 124.334 403.563 130.167C405.054 134.944 405.097 140.056 403.684 144.858C402.945 147.351 400.716 155.891 397.454 156.09C393.354 156.34 395.816 149.229 390.713 148.925Z" fill="#2F2E41"/>
<path d="M365.619 462.262L364.595 479.136L358.966 485.273L347.194 476.58L354.871 459.194L365.619 462.262Z" fill="#A0616A"/>
<path d="M372.017 170.538C372.017 170.538 374.576 151.618 399.142 157.754C423.708 163.89 426.267 169.515 426.267 169.515C426.267 169.515 426.779 174.628 428.314 175.14C429.85 175.651 433.944 178.208 431.897 179.742C429.85 181.276 441.109 196.616 441.109 196.616C441.109 196.616 447.763 200.707 443.668 220.138C439.574 239.57 434.968 267.694 434.968 267.694C434.968 267.694 436.503 276.898 434.456 282.012C432.409 287.125 436.503 290.704 436.503 292.75C436.503 294.795 435.479 305.022 435.479 305.022C435.479 305.022 365.875 302.465 356.151 305.022C346.427 307.579 372.017 170.538 372.017 170.538Z" fill="#575A89"/>
<path d="M433.176 300.676C433.176 300.676 437.271 310.391 433.176 326.243C429.082 342.095 428.058 381.98 428.058 381.98C428.058 381.98 428.058 459.194 424.476 463.284C420.893 467.375 421.917 474.023 421.917 474.023H406.563C406.563 474.023 407.075 465.841 405.028 461.239C402.98 456.637 403.492 407.036 403.492 407.036L394.792 337.493L377.39 403.457C377.39 403.457 370.737 452.546 368.178 454.592C365.619 456.637 368.178 464.818 368.178 464.818C362.918 465.606 357.544 464.711 352.824 462.262V454.08C352.824 454.08 345.147 451.012 347.706 439.762C350.265 428.513 349.242 306.301 356.919 300.676C364.596 295.051 433.176 300.676 433.176 300.676Z" fill="#2F2E41"/>
<path d="M351.801 478.114C351.801 478.114 351.573 474.705 351.175 468.228C351.175 468.228 333.888 464.818 334.911 476.579C335.935 488.34 344.635 492.431 344.635 492.431C344.635 492.431 348.73 491.92 348.218 496.011C347.706 500.101 363.06 508.794 370.225 500.613L365.82 474.79C365.82 474.79 361.013 478.113 359.477 476.579C357.942 475.045 351.801 478.114 351.801 478.114Z" fill="#2F2E41"/>
<path d="M344.891 302.465L343.356 309.624C343.356 309.624 324.931 338.771 340.285 341.839C355.639 344.907 354.615 313.715 354.615 313.715L356.151 307.068L344.891 302.465Z" fill="#A0616A"/>
<path d="M363.06 174.884C363.06 174.884 373.808 167.725 378.926 176.418C384.044 185.111 389.162 205.054 389.162 205.054L382.508 253.632L357.942 309.88L343.1 304.255C343.1 304.255 345.659 297.096 344.635 294.028C343.612 290.96 348.73 283.29 348.73 283.29L353.848 243.405C353.848 243.405 355.895 175.395 363.06 174.884Z" fill="#575A89"/>
<path opacity="0.1" d="M382.253 252.353L365.363 313.204L357.686 310.136L382.253 252.353Z" fill="black"/>
<path opacity="0.1" d="M421.933 188.79C426.097 188.809 430.246 188.309 434.286 187.303L434.036 186.312C424.477 188.729 413.668 188.134 401.91 184.543C391.449 181.347 381.566 176.229 372.009 171.28L371.538 172.188C381.136 177.158 391.061 182.298 401.611 185.521C408.186 187.61 415.034 188.712 421.933 188.79Z" fill="black"/>
<path d="M258.608 311.024H161.351V415.456H258.608V311.024Z" fill="#F9A826"/>
<path d="M143.642 143.24C137.089 127.792 120.408 124.874 120.408 124.874C120.408 124.874 104.347 120.593 90.9335 140.981C78.4313 159.985 62.309 177.789 82.7553 185.374L88.1562 174.042L88.8042 187.084C91.7773 187.702 94.7822 188.158 97.8052 188.449C120.484 190.75 141.863 194.578 142.258 186.389C142.785 175.503 149.947 158.104 143.642 143.24Z" fill="#2F2E41"/>
<path d="M74.4506 266.95L72.9913 304.13C72.9913 304.13 57.6684 334.02 70.0726 333.291C82.4768 332.562 81.0175 304.13 81.0175 304.13L85.3955 269.137L74.4506 266.95Z" fill="#FFB8B8"/>
<path d="M158.361 260.389L162.739 297.569C162.739 297.569 175.873 317.252 165.658 323.814C155.443 330.375 155.443 300.485 155.443 300.485L144.498 262.576L158.361 260.389Z" fill="#FFB8B8"/>
<path d="M143.039 329.646L129.905 380.677C129.905 380.677 124.067 401.089 116.041 411.296L113.123 417.128L101.448 415.67L109.474 382.864L114.582 322.355L143.039 329.646Z" fill="#FFB8B8"/>
<path opacity="0.1" d="M143.039 329.646L129.905 380.677C129.905 380.677 124.067 401.089 116.041 411.296L113.123 417.128L101.448 415.67L109.474 382.864L114.582 322.355L143.039 329.646Z" fill="black"/>
<path d="M98.5597 407.531L118.514 412.147L110.29 431.517C110.29 431.517 113.633 443.113 110.449 449.254C107.265 455.395 107.724 466.537 107.724 466.537L103.4 465.857C103.4 465.857 92.8996 485.607 80.4933 479.964C68.087 474.322 81.2826 460.9 81.2826 460.9C81.2826 460.9 92.0095 439.71 93.3718 431.069C94.7341 422.427 98.5597 407.531 98.5597 407.531Z" fill="#2F2E41"/>
<path opacity="0.1" d="M98.5597 407.531L118.514 412.147L110.29 431.517C110.29 431.517 113.633 443.113 110.449 449.254C107.265 455.395 107.724 466.537 107.724 466.537L103.4 465.857C103.4 465.857 92.8996 485.607 80.4933 479.964C68.087 474.322 81.2826 460.9 81.2826 460.9C81.2826 460.9 92.0095 439.71 93.3718 431.069C94.7341 422.427 98.5597 407.531 98.5597 407.531Z" fill="black"/>
<path d="M81.7472 318.71L92.692 373.387C92.692 373.387 89.0438 400.36 93.4217 417.128L97.7997 433.166H112.393V374.116C112.393 374.116 113.122 326.001 110.934 322.356C108.745 318.71 81.7472 318.71 81.7472 318.71Z" fill="#FFB8B8"/>
<path d="M115.311 427.334L94.881 428.792L99.9886 449.204C99.9886 449.204 94.881 460.14 97.07 466.701C99.259 473.262 97.07 484.197 97.07 484.197H101.448C101.448 484.197 108.745 505.339 121.878 501.694C135.012 498.049 124.067 482.739 124.067 482.739C124.067 482.739 116.771 460.14 116.771 451.392C116.771 442.643 115.311 427.334 115.311 427.334Z" fill="#2F2E41"/>
<path d="M120.419 175.094C131.3 175.094 140.12 166.281 140.12 155.411C140.12 144.54 131.3 135.727 120.419 135.727C109.539 135.727 100.718 144.54 100.718 155.411C100.718 166.281 109.539 175.094 120.419 175.094Z" fill="#FFB8B8"/>
<path d="M106.92 163.065C106.92 163.065 108.38 187.852 104.002 189.31C99.6238 190.768 126.621 189.31 126.621 189.31C126.621 189.31 122.973 174 126.621 169.626C130.269 165.252 106.92 163.065 106.92 163.065Z" fill="#FFB8B8"/>
<path d="M126.986 185.3C126.986 185.3 108.015 183.842 104.367 185.3C100.718 186.758 90.5031 194.048 90.5031 194.048L95.6106 239.977L137.201 248.725L143.768 239.248L150.335 225.396L147.416 207.9L146.687 197.694L126.986 185.3Z" fill="#D0CDE1"/>
<path d="M86.8548 196.965C86.8548 196.965 77.3692 199.152 76.6396 206.442C75.9099 213.732 75.9099 231.957 76.6396 234.873C77.3692 237.789 76.6396 239.248 75.9099 239.977C75.1802 240.706 73.7209 239.248 75.1802 241.435C76.6396 243.622 76.6396 243.622 75.9099 245.809C75.1802 247.996 72.9913 245.08 74.4506 248.725C75.9099 252.37 76.6396 253.099 75.9099 253.828C75.1802 254.557 72.9913 271.324 72.9913 271.324L85.3954 273.511L97.7996 230.499L86.8548 196.965Z" fill="#D0CDE1"/>
<path d="M143.768 196.965C145.154 197.042 146.494 197.488 147.648 198.257C148.803 199.026 149.731 200.09 150.335 201.339C152.524 205.713 158.361 234.144 157.632 236.331C156.902 238.518 155.443 235.602 156.902 239.977C158.361 244.351 156.902 243.622 157.632 246.538C158.361 249.454 154.713 246.538 157.632 249.454C160.55 252.37 162.01 253.099 160.55 254.557C159.091 256.015 156.902 253.099 159.091 256.015C161.28 258.931 161.28 263.305 161.28 263.305L143.768 266.95L138.661 226.125L143.768 196.965Z" fill="#D0CDE1"/>
<path d="M84.5706 195.805L88.1552 194.015C88.5176 193.834 88.9124 193.726 89.3166 193.698C89.7209 193.67 90.1267 193.723 90.5105 193.853C90.8944 193.982 91.2487 194.187 91.5531 194.454C91.8575 194.721 92.1058 195.046 92.2838 195.41L108.745 229.041L126.986 240.706L140.12 234.873C140.12 234.873 149.605 220.293 146.687 213.003C144.708 208.06 142.39 200.455 141.102 196.07C141.027 195.812 141.032 195.537 141.119 195.282C141.205 195.028 141.368 194.806 141.585 194.647C141.802 194.488 142.063 194.4 142.332 194.394C142.601 194.388 142.866 194.465 143.089 194.615L145.576 196.272C146.372 196.802 146.927 197.624 147.121 198.56L152.524 224.667L145.227 239.977V254.557L150.335 333.291C150.335 333.291 131.364 330.375 112.393 326.73C93.4217 323.084 69.343 320.168 69.343 320.168C69.343 320.168 81.7472 256.015 91.9624 245.08C91.9624 245.08 91.9624 237.06 93.4217 236.331C94.881 235.602 96.3403 230.499 96.3403 230.499L83.1236 199.757C82.8145 199.038 82.7922 198.229 83.0613 197.494C83.3303 196.759 83.8703 196.155 84.5706 195.805Z" fill="#2F2E41"/>
<path d="M139.936 137.627L123.219 128.878L100.134 132.458L95.3575 153.534L107.247 153.077L110.569 145.334V152.95L116.055 152.739L119.239 140.411L121.229 153.534L140.733 153.137L139.936 137.627Z" fill="#2F2E41"/>
<path d="M100.353 159.238C101.562 159.238 102.542 157.524 102.542 155.411C102.542 153.297 101.562 151.583 100.353 151.583C99.1445 151.583 98.1645 153.297 98.1645 155.411C98.1645 157.524 99.1445 159.238 100.353 159.238Z" fill="#FFB8B8"/>
<path d="M291.586 274.977H275.682V259.088H275.071V274.977H259.167V275.589H275.071V291.478H275.682V275.589H291.586V274.977Z" fill="#2F2E41"/>
<path d="M242.181 342.283H177.641V343.542H242.181V342.283Z" fill="#F2F2F2"/>
<path d="M242.181 359.424H177.641V360.683H242.181V359.424Z" fill="#F2F2F2"/>
<path d="M242.181 376.565H177.641V377.824H242.181V376.565Z" fill="#F2F2F2"/>
</svg>
