<svg width="30" height="32" viewBox="0 0 30 32" fill="none" xmlns="http://www.w3.org/2000/svg">
<path d="M0 2.292C0 1.026 0.98625 0 2.20312 0H27.7969C29.0138 0 30 1.026 30 2.292V29.708C30 30.974 29.0138 32 27.7969 32H2.20312C0.98625 32 0 30.974 0 29.708V2.292ZM9.26812 26.788V12.338H4.76625V26.788H9.26812ZM7.01813 10.364C8.5875 10.364 9.56437 9.256 9.56437 7.868C9.53625 6.45 8.58938 5.372 7.04813 5.372C5.50688 5.372 4.5 6.452 4.5 7.868C4.5 9.256 5.47687 10.364 6.98812 10.364H7.01813ZM16.2206 26.788V18.718C16.2206 18.286 16.2506 17.854 16.3706 17.546C16.695 16.684 17.4356 15.79 18.6806 15.79C20.31 15.79 20.9606 17.114 20.9606 19.058V26.788H25.4625V18.5C25.4625 14.06 23.2425 11.996 20.28 11.996C17.8913 11.996 16.8206 13.396 16.2206 14.382V14.432H16.1906C16.2006 14.4153 16.2106 14.3986 16.2206 14.382V12.338H11.7206C11.7769 13.694 11.7206 26.788 11.7206 26.788H16.2206Z" fill="#0A1931"/>
</svg>
