<svg width="34" height="41" viewBox="0 0 34 41" fill="none" xmlns="http://www.w3.org/2000/svg">
<path d="M8.61804 40.5969C-2.88122 30.1968 -2.86413 13.3501 8.61804 2.96552C9.12255 2.50924 9.90428 2.43445 10.5007 2.77157L16.2397 6.01578C16.5423 6.18682 16.7688 6.44861 16.8797 6.75538C16.9905 7.06215 16.9787 7.3944 16.8461 7.69406L13.9767 14.1821C13.8541 14.4592 13.6352 14.6928 13.353 14.8476C13.0708 15.0025 12.7406 15.0701 12.4122 15.0404L7.47071 14.5936C5.60682 19.259 5.64569 24.4008 7.47071 28.9688L12.4123 28.5219C12.7407 28.4922 13.0709 28.5598 13.3531 28.7147C13.6353 28.8695 13.8542 29.1031 13.9768 29.3802L16.8462 35.8683C16.9787 36.168 16.9906 36.5002 16.8797 36.807C16.7689 37.1138 16.5424 37.3756 16.2398 37.5466L10.5008 40.7908C10.2089 40.9558 9.8639 41.0264 9.52197 40.9912C9.18004 40.9559 8.86139 40.8169 8.61804 40.5969ZM21.881 7.64529C22.9286 9.25061 22.9286 11.2494 21.881 12.8548C21.5312 13.3907 20.7203 13.4921 20.2236 13.0615L19.6946 12.6029C19.3483 12.3028 19.2702 11.8324 19.4944 11.449C19.7102 11.0795 19.8229 10.6679 19.8229 10.25C19.8229 9.83215 19.7102 9.42058 19.4944 9.05106C19.2701 8.66764 19.3483 8.19727 19.6946 7.89713L20.2236 7.43861C20.7203 7.00795 21.5312 7.10933 21.881 7.64529ZM30.0079 0.343206C35.3328 6.07712 35.3286 14.4275 30.0079 20.1568C29.6118 20.5833 28.8985 20.6169 28.4538 20.2315L27.9405 19.7865C27.5367 19.4365 27.4998 18.8633 27.8581 18.4749C32.2575 13.7072 32.2539 6.78885 27.8581 2.02509C27.4998 1.63671 27.5366 1.06351 27.9405 0.713487L28.4538 0.268493C28.8985 -0.116923 29.6118 -0.0833703 30.0079 0.343206ZM25.9375 3.942C29.1294 7.65137 29.1345 12.8426 25.9375 16.558C25.5488 17.0097 24.8133 17.0585 24.3565 16.6624L23.8414 16.2156C23.4518 15.8778 23.3988 15.3272 23.7276 14.9399C26.0771 12.1721 26.0769 8.32771 23.7276 5.56005C23.3988 5.1728 23.4518 4.62226 23.8414 4.28433L24.3565 3.83757C24.8133 3.44143 25.5488 3.49028 25.9375 3.942Z" fill="#7C83FD"/>
</svg>
