<svg width="960" height="771" viewBox="0 0 960 771" fill="none" xmlns="http://www.w3.org/2000/svg">
<g filter="url(#filter0_d)">
<path d="M292 219C140.4 197 68.1667 63.8333 51 0L963.5 1V673.5C915.333 663.833 804 673.5 781 578C763.067 503.538 540.315 545.415 475.5 495.5C388.5 428.5 481.5 246.5 292 219Z" fill="url(#paint0_linear)"/>
<path d="M561 489C478 476 429.5 379 423 347.5C442.44 495.103 429.487 523.053 645.5 528C711 529.5 769.989 547.5 778.5 576.5C805.5 668.5 898.5 665.5 954.5 672C899.021 663.123 859 648.76 840 630.5C821 612.24 816 609 797 554.5C777.344 498.118 673.299 506.589 561 489Z" fill="#415BBD"/>
</g>
<defs>
<filter id="filter0_d" x="0" y="-19" width="1028.5" height="789.5" filterUnits="userSpaceOnUse" color-interpolation-filters="sRGB">
<feFlood flood-opacity="0" result="BackgroundImageFix"/>
<feColorMatrix in="SourceAlpha" type="matrix" values="0 0 0 0 0 0 0 0 0 0 0 0 0 0 0 0 0 0 127 0" result="hardAlpha"/>
<feOffset dx="7" dy="39"/>
<feGaussianBlur stdDeviation="29"/>
<feComposite in2="hardAlpha" operator="out"/>
<feColorMatrix type="matrix" values="0 0 0 0 0 0 0 0 0 0 0 0 0 0 0 0 0 0 0.25 0"/>
<feBlend mode="normal" in2="BackgroundImageFix" result="effect1_dropShadow"/>
<feBlend mode="normal" in="SourceGraphic" in2="effect1_dropShadow" result="shape"/>
</filter>
<linearGradient id="paint0_linear" x1="496.5" y1="436" x2="879.5" y2="-236" gradientUnits="userSpaceOnUse">
<stop stop-color="#5C7AEA"/>
<stop offset="0.529167" stop-color="#7491FF"/>
<stop offset="1" stop-color="#9AAFFF"/>
</linearGradient>
</defs>
</svg>
